<?xml version="1.0" ?><svg viewBox="0 0 64 64" xmlns="http://www.w3.org/2000/svg"><defs><style>.cls-1{fill:#767689;}.cls-2{fill:#f9f9f9;}.cls-3{fill:#5f5f70;}.cls-4{fill:#fcc667;}.cls-5{fill:#fbae36;}.cls-6{fill:#e6e5e1;}.cls-7{fill:#cac7c1;}.cls-8{fill:#16244d;}</style></defs><g id="Helmet"><path class="cls-1" d="M47.56,55.28l-1.24-5.55a24.76,24.76,0,1,0-37.91-21V45.09Z" id="path2800-0"/><path class="cls-2" d="M9,45.16,47.56,55.28c1.25.33,2.33,1,2.33,2.34S48.81,60.28,47.56,60L7.8,49.67a2.31,2.31,0,0,1-1.65-2.85A2.34,2.34,0,0,1,9,45.16Z" id="rect2808-4"/><circle class="cls-2" cx="26.92" cy="43.12" id="path2858-8" r="2.18"/><circle class="cls-2" cx="18.33" cy="40.23" id="circle2860-7" r="2.18"/><path class="cls-3" d="M39.72,4.88A24.77,24.77,0,0,1,40,47l1.74,6.63,5.79,1.62-1.24-5.55a24.75,24.75,0,0,0-6.6-44.85Z" id="path9546"/><path class="cls-4" d="M47.68,9.66,32.6,24.74l0,11.57,11.7,17.86,0,.2,3.26.91-1.24-5.55A24.75,24.75,0,0,0,48.94,9.67Z" id="path2848-0"/><path class="cls-5" d="M48.23,9.11l-1.78,1.78A24.77,24.77,0,0,1,40,47l.29,1.11,4,6,0,.2,3.26.91-1.24-5.55A24.75,24.75,0,0,0,48.94,9.67C48.51,9.32,48.3,9.15,48.23,9.11Z" id="path9613"/><path class="cls-2" d="M51.11,11.7,37.75,25.06l-1,10,9.6,14.67a24.74,24.74,0,0,0,4.79-38Z" id="path2841-8"/><path class="cls-6" d="M51.11,11.7l-2.5,2.5a24.74,24.74,0,0,1-5.54,30.56l3.25,5a24.74,24.74,0,0,0,4.79-38Z" id="path9595"/><path class="cls-7" d="M27.37,26.75a6.48,6.48,0,0,1,12.28,2.89h0a6.48,6.48,0,0,1-12.28,2.89Z" id="path2817-7"/><path class="cls-4" d="M17.09,26.75H31.28a2.89,2.89,0,0,1,0,5.78H17.09a2.89,2.89,0,0,1,0-5.78Z" id="rect2850-6"/><path class="cls-5" d="M17.09,28.38a1.26,1.26,0,0,0,0,2.52H31.28a1.26,1.26,0,0,0,0-2.52Z" id="path9642"/><path class="cls-6" d="M40.91,53.56c1.25.33,2.34,1,2.34,2.34s-1.08,2.65-2.33,2.33L47.56,60c1.25.32,2.33-1,2.33-2.33s-1.08-2-2.33-2.34Z" id="path9648"/><path class="cls-8" d="M58.93,28.76a25.76,25.76,0,0,0-51.52,0V44.24a3.34,3.34,0,0,0-2,4.72,3.29,3.29,0,0,0,2.11,1.68L46.67,60.76a3.42,3.42,0,0,0,.83.1,3.25,3.25,0,0,0,.91-6.36l-1-4.3A25.61,25.61,0,0,0,58.93,28.76ZM46.61,48.34,38.06,35.29a7.43,7.43,0,0,0,1-10.17l12-12a23.72,23.72,0,0,1-4.46,35.18ZM45.1,53.62,34.24,37a7.45,7.45,0,0,0,2.15-.65l9,13.75.84,3.79ZM31.28,27.75a1.89,1.89,0,0,1,0,3.78H17.09a1.89,1.89,0,0,1,0-3.78Zm0,5.78a3.89,3.89,0,0,0,0-7.78h-2a5.48,5.48,0,1,1,0,7.78ZM49.69,11.71l-12,12a7.36,7.36,0,0,0-1.68-1L48.3,10.45C48.78,10.85,49.24,11.27,49.69,11.71ZM33.17,5A23.61,23.61,0,0,1,46.69,9.24l-13,13c-.18,0-.37,0-.56,0a7.44,7.44,0,0,0-6.37,3.59H17.09a3.89,3.89,0,0,0,0,7.78H26.8a7.39,7.39,0,0,0,5,3.45L42.21,52.86,9.44,44.25h0V28.76A23.79,23.79,0,0,1,33.17,5ZM48.64,58.11h0a1.25,1.25,0,0,1-1.46.71L8.05,48.71A1.3,1.3,0,0,1,7.22,48a1.32,1.32,0,0,1-.06-1.1,1.36,1.36,0,0,1,1.27-.85c.28,0-2.54-.7,39.38,10.31a1.23,1.23,0,0,1,.8.66A1.24,1.24,0,0,1,48.64,58.11Z"/><path class="cls-8" d="M26.92,46.3a3.18,3.18,0,1,0-3.18-3.18A3.17,3.17,0,0,0,26.92,46.3Zm0-4.36a1.18,1.18,0,1,1-1.18,1.18A1.17,1.17,0,0,1,26.92,41.94Z"/><path class="cls-8" d="M18.33,43.41a3.18,3.18,0,1,0-3.18-3.18A3.18,3.18,0,0,0,18.33,43.41Zm0-4.35a1.18,1.18,0,1,1-1.18,1.17A1.17,1.17,0,0,1,18.33,39.06Z"/><path class="cls-8" d="M26.41,30.67h3.22a1,1,0,0,0,0-2H26.41a1,1,0,1,0,0,2Z"/></g></svg>