<?xml version="1.0" ?><svg viewBox="0 0 64 64" xmlns="http://www.w3.org/2000/svg"><defs><style>.cls-1{fill:#fcc667;}.cls-2{fill:#fbae36;}.cls-3{fill:#e6e5e1;}.cls-4{fill:#f9f9f9;}.cls-5{fill:#6cc5ef;}.cls-6{fill:#3db3ea;}.cls-7{fill:#cac7c1;}.cls-8{fill:#16244d;}</style></defs><g id="Research"><path class="cls-1" d="M40.35,24.24A15.21,15.21,0,0,0,10,25.17h0A15.21,15.21,0,0,0,24.24,40.35Z" id="path2115-9"/><path class="cls-2" d="M25.17,10a15.22,15.22,0,0,0-14.55,10.8,15.21,15.21,0,0,1,27,6.24l2.76-2.76A15.22,15.22,0,0,0,25.17,10Z" id="path4771"/><path class="cls-3" d="M27.07,27.09a12.49,12.49,0,0,0,16,19L46.93,50l3-3L46.12,43.1a12.49,12.49,0,0,0-19-16Z" id="path2140-3"/><path class="cls-4" d="M30.56,30.66a7.49,7.49,0,1,1-2.15,5.25,7.49,7.49,0,0,1,2.15-5.25Z" id="path4778"/><path class="cls-5" d="M55.17,60,60,55.17,50.86,46,46,50.86Z" id="rect2162-9"/><path class="cls-6" d="M57.74,57.43,60,55.17,50.86,46l-2.27,2.26Z" id="path4780"/><path class="cls-7" d="M35.91,23.42c-.44,0-.88,0-1.32.07a12.49,12.49,0,0,1,9.54,19.66L48,47l-2,2,1,1,3-3L46.12,43.1A12.49,12.49,0,0,0,35.91,23.42Z" id="path4787"/><path class="cls-7" d="M35.91,28.41a7.08,7.08,0,0,0-1.13.09,7.5,7.5,0,0,1,0,14.82,8.74,8.74,0,0,0,1.14.08,7.5,7.5,0,0,0,0-15Z" id="path4935"/><path class="cls-8" d="M10.11,31.15a16.31,16.31,0,0,0,9.08,9.07c1.48,4.59,3.59,7.12,6,7.12a3.82,3.82,0,0,0,2.36-.88A13.43,13.43,0,0,0,43,47.4L45.52,50l-.2.2a1,1,0,0,0-.29.71,1,1,0,0,0,.29.7l9.14,9.15a1,1,0,0,0,1.42,0l4.83-4.83a1,1,0,0,0,0-1.42l-9.15-9.14a1,1,0,0,0-1.41,0l-.2.2L47.4,43a13.45,13.45,0,0,0-.94-15.45,3.78,3.78,0,0,0,.88-2.35c0-2.39-2.53-4.5-7.12-6a16.31,16.31,0,0,0-9.07-9.08C29.67,5.53,27.56,3,25.17,3s-4.5,2.53-6,7.12a16.29,16.29,0,0,0-9.07,9.07C5.53,20.67,3,22.78,3,25.17S5.52,29.67,10.11,31.15Zm.85-6a14.2,14.2,0,0,1,.69-4.35,41.69,41.69,0,0,1,5.75-1.16c-.15,1.78-.24,3.63-.24,5.51A55.25,55.25,0,0,0,18.5,37.69,14.22,14.22,0,0,1,11,25.17Zm28.22-2.34a13.69,13.69,0,0,0-3.27-.41A13.49,13.49,0,0,0,22.42,35.91a13.56,13.56,0,0,0,.42,3.27,13.86,13.86,0,0,1-2-.5,51,51,0,0,1-1.66-13.51c0-2,.09-3.89.27-5.74,1.85-.18,3.78-.27,5.74-.27a51,51,0,0,1,13.51,1.66A14.76,14.76,0,0,1,39.18,22.83ZM21.57,41a18,18,0,0,0,2,.32A13.48,13.48,0,0,0,26,45.06a1.65,1.65,0,0,1-.86.28C24.2,45.34,22.81,44.15,21.57,41Zm37,14.21-3.42,3.42-7.73-7.73,3.42-3.42ZM45.41,43.8l3.13,3.13-1.61,1.61L43.8,45.41a1,1,0,0,0-.7-.29,1,1,0,0,0-.58.18,11.49,11.49,0,1,1-6.61-20.88A11.54,11.54,0,0,1,44,27.79,11.46,11.46,0,0,1,45.3,42.52,1,1,0,0,0,45.41,43.8Zm-.07-18.63a1.76,1.76,0,0,1-.27.86,13.59,13.59,0,0,0-3.79-2.49,18,18,0,0,0-.32-2C44.15,22.81,45.34,24.2,45.34,25.17ZM37.69,18.5a55.25,55.25,0,0,0-12.52-1.34c-1.88,0-3.73.09-5.51.24a41.69,41.69,0,0,1,1.16-5.75A14.14,14.14,0,0,1,37.69,18.5ZM25.17,5c1,0,2.36,1.19,3.6,4.38a15.64,15.64,0,0,0-7.2,0C22.82,6.19,24.2,5,25.17,5ZM18.5,12.63a46,46,0,0,0-.88,5,46,46,0,0,0-5,.88A14.31,14.31,0,0,1,18.5,12.63ZM9.38,21.57a15.64,15.64,0,0,0,0,7.2C6.19,27.53,5,26.14,5,25.17S6.19,22.82,9.38,21.57Z"/><path class="cls-8" d="M35.91,27.41h0A8.57,8.57,0,0,0,29.85,30a8.49,8.49,0,1,0,6.06-2.55Zm0,15a6.5,6.5,0,0,1,0-13h0a6.5,6.5,0,0,1,0,13Z"/><path class="cls-8" d="M43.31,13.71a1,1,0,0,0,1-1V12.4h.31a1,1,0,0,0,0-2h-.31v-.31a1,1,0,0,0-2,0v.31H42a1,1,0,0,0,0,2h.31v.31A1,1,0,0,0,43.31,13.71Z"/><path class="cls-8" d="M52.74,28.94a1,1,0,0,0,1-1v-.31H54a1,1,0,0,0,0-2h-.3v-.31a1,1,0,0,0-2,0v.31h-.31a1,1,0,0,0,0,2h.31v.31A1,1,0,0,0,52.74,28.94Z"/><path class="cls-8" d="M28.81,50.19a1,1,0,0,0-1,1v.31H27.5a1,1,0,0,0,0,2h.31v.3a1,1,0,0,0,2,0v-.3h.3a1,1,0,0,0,0-2h-.3v-.31A1,1,0,0,0,28.81,50.19Z"/><path class="cls-8" d="M10.88,44.62a1,1,0,0,0-1,1v.3H9.57a1,1,0,0,0,0,2h.31v.31a1,1,0,0,0,2,0v-.31h.31a1,1,0,0,0,0-2h-.31v-.3A1,1,0,0,0,10.88,44.62Z"/><path class="cls-8" d="M8.66,12.27a1,1,0,0,0,1-1V11H10a1,1,0,0,0,0-2h-.3v-.3a1,1,0,0,0-2,0V9H7.35a1,1,0,0,0,0,2h.31v.31A1,1,0,0,0,8.66,12.27Z"/><path class="cls-8" d="M37.36,34.82h-.3v-.31a1,1,0,1,0-2,0v.31h-.31a1,1,0,0,0,0,2h.31v.3a1,1,0,1,0,2,0v-.3h.3a1,1,0,0,0,0-2Z"/></g></svg>
